<svg width="656" height="18" viewBox="0 0 656 18" fill="none" xmlns="http://www.w3.org/2000/svg">
<g clip-path="url(#clip0_130_2758)">
<path d="M115.036 2.54565H109.251V5.09129H100.847V7.63692H109.251V5.09129V2.54565H159.674H221.024H327.751V22.9107H193.289H100.847H84.0392V15.2738H75.6354V17.8194H84.0392V22.9107H75.6354H58.8277V20.3651H50.4238V12.7282V5.09129H58.8277V2.54565H115.036Z" fill="#BE3939"/>
<rect x="25.2117" y="5.09131" width="25.2115" height="2.54563" fill="#BE3939"/>
<rect x="33.6157" y="7.63684" width="16.8077" height="2.54563" fill="#BE3939"/>
<rect x="42.0195" y="12.7281" width="8.40385" height="2.54563" fill="#BE3939"/>
<rect x="33.6157" y="17.8195" width="16.8077" height="2.54563" fill="#BE3939"/>
<rect x="16.8079" y="12.7281" width="16.8077" height="2.54563" fill="#BE3939"/>
<rect x="8.40381" y="7.63684" width="16.8077" height="2.54563" fill="#BE3939"/>
<rect x="33.6157" width="16.8077" height="2.54563" fill="#BE3939"/>
<rect x="58.8264" width="8.40385" height="2.54563" fill="#BE3939"/>
<rect y="12.7281" width="8.40385" height="2.54563" fill="#BE3939"/>
<rect x="16.8079" y="2.54565" width="8.40385" height="2.54563" fill="#BE3939"/>
<rect x="8.40381" y="15.2738" width="8.40385" height="2.54563" fill="#BE3939"/>
<path d="M540.464 22.9106H546.249V20.365H554.653V17.8194H546.249V20.365V22.9106H495.826H434.476H327.749V2.5456H462.211H554.653H571.461V10.1825H579.865V7.63686H571.461V2.5456H579.865H596.672V5.09123H605.076V12.7281V20.365H596.672V22.9106H540.464Z" fill="#BE3939"/>
<rect x="630.288" y="20.365" width="25.2115" height="2.54563" transform="rotate(-180 630.288 20.365)" fill="#BE3939"/>
<rect x="621.884" y="17.8195" width="16.8077" height="2.54563" transform="rotate(-180 621.884 17.8195)" fill="#BE3939"/>
<rect x="613.48" y="12.7281" width="8.40385" height="2.54563" transform="rotate(-180 613.48 12.7281)" fill="#BE3939"/>
<rect x="621.884" y="7.63684" width="16.8077" height="2.54563" transform="rotate(-180 621.884 7.63684)" fill="#BE3939"/>
<rect x="647.096" y="5.09131" width="16.8077" height="2.54563" transform="rotate(-180 647.096 5.09131)" fill="#BE3939"/>
<rect x="638.692" y="12.7281" width="16.8077" height="2.54563" transform="rotate(-180 638.692 12.7281)" fill="#BE3939"/>
<rect x="647.096" y="17.8195" width="16.8077" height="2.54563" transform="rotate(-180 647.096 17.8195)" fill="#BE3939"/>
<rect x="655.5" y="12.7281" width="8.40385" height="2.54563" transform="rotate(-180 655.5 12.7281)" fill="#BE3939"/>
<rect x="647.096" y="10.1825" width="8.40385" height="2.54563" transform="rotate(-180 647.096 10.1825)" fill="#BE3939"/>
</g>
<defs>
<clipPath id="clip0_130_2758">
<rect width="656" height="18" fill="white"/>
</clipPath>
</defs>
</svg>
